<mxfile host="b19cd3b8-52fe-4cd8-9e69-84327bdf1286" modified="2020-09-15T05:28:32.709Z" agent="5.0 (Macintosh; Intel Mac OS X 10_15_6) AppleWebKit/537.36 (KHTML, like Gecko) Code/1.48.0 Chrome/78.0.3904.130 Electron/7.3.2 Safari/537.36" etag="De_-GS6gD8QJ-VXCmZmY" version="13.1.3">
    <diagram id="6hGFLwfOUW9BJ-s0fimq" name="Page-1">
        <mxGraphModel dx="1138" dy="680" grid="1" gridSize="10" guides="1" tooltips="1" connect="1" arrows="1" fold="1" page="1" pageScale="1" pageWidth="827" pageHeight="1169" math="0" shadow="0">
            <root>
                <mxCell id="0"/>
                <mxCell id="1" parent="0"/>
                <mxCell id="6" value="タスクID" style="swimlane;childLayout=stackLayout;horizontal=1;startSize=30;horizontalStack=0;rounded=1;fontSize=14;fontStyle=0;strokeWidth=2;resizeParent=0;resizeLast=1;shadow=0;dashed=0;align=center;arcSize=0;" vertex="1" parent="1">
                    <mxGeometry x="590" y="340" width="160" height="160" as="geometry"/>
                </mxCell>
                <mxCell id="7" value="タスク内容&#10;タスク担当（FK）&#10;期限&#10;論理削除フラグ&#10;作成日時&#10;作成者（FK）&#10;更新日時&#10;更新者（FK）&#10;" style="align=left;strokeColor=none;fillColor=none;spacingLeft=4;fontSize=12;verticalAlign=top;resizable=0;rotatable=0;part=1;" vertex="1" parent="6">
                    <mxGeometry y="30" width="160" height="130" as="geometry"/>
                </mxCell>
                <mxCell id="19" value="ユーザーID (FK)&#10;タスクID (FK)" style="swimlane;childLayout=stackLayout;horizontal=1;startSize=120;horizontalStack=0;rounded=1;fontSize=14;fontStyle=0;strokeWidth=2;resizeParent=0;resizeLast=1;shadow=0;dashed=0;align=center;arcSize=0;" vertex="1" parent="1">
                    <mxGeometry x="590" y="220" width="156" height="60" as="geometry"/>
                </mxCell>
                <mxCell id="23" value="" style="edgeStyle=entityRelationEdgeStyle;fontSize=12;html=1;endArrow=ERzeroToMany;startArrow=ERmandOne;" edge="1" parent="1" source="3" target="21">
                    <mxGeometry width="100" height="100" relative="1" as="geometry">
                        <mxPoint x="400" y="370" as="sourcePoint"/>
                        <mxPoint x="280" y="260" as="targetPoint"/>
                    </mxGeometry>
                </mxCell>
                <mxCell id="2" value="ユーザーID" style="swimlane;childLayout=stackLayout;horizontal=1;startSize=30;horizontalStack=0;rounded=1;fontSize=14;fontStyle=1;strokeWidth=2;resizeParent=0;resizeLast=1;shadow=0;dashed=0;align=center;arcSize=0;" vertex="1" parent="1">
                    <mxGeometry x="320" y="340" width="160" height="170" as="geometry"/>
                </mxCell>
                <mxCell id="3" value="メールアドレス&#10;パスワード&#10;表示名&#10;自己紹介&#10;電話番号（勤務先）&#10;電話番号（携帯電話）&#10;論理削除フラグ&#10;作成日時&#10;更新日時&#10;" style="align=left;strokeColor=none;fillColor=none;spacingLeft=4;fontSize=12;verticalAlign=top;resizable=0;rotatable=0;part=1;" vertex="1" parent="2">
                    <mxGeometry y="30" width="160" height="140" as="geometry"/>
                </mxCell>
                <mxCell id="25" value="" style="edgeStyle=entityRelationEdgeStyle;fontSize=12;html=1;endArrow=ERoneToMany;startArrow=ERmandOne;entryX=0;entryY=0.5;entryDx=0;entryDy=0;exitX=0.994;exitY=0.062;exitDx=0;exitDy=0;exitPerimeter=0;" edge="1" parent="1" source="5" target="21">
                    <mxGeometry width="100" height="100" relative="1" as="geometry">
                        <mxPoint x="70" y="420" as="sourcePoint"/>
                        <mxPoint x="72" y="235" as="targetPoint"/>
                    </mxGeometry>
                </mxCell>
                <mxCell id="4" value="チャットID" style="swimlane;childLayout=stackLayout;horizontal=1;startSize=30;horizontalStack=0;rounded=1;fontSize=14;fontStyle=0;strokeWidth=2;resizeParent=0;resizeLast=1;shadow=0;dashed=0;align=center;arcSize=0;" vertex="1" parent="1">
                    <mxGeometry x="50" y="360" width="160" height="170" as="geometry"/>
                </mxCell>
                <mxCell id="5" value="チャット名&#10;チャット概要&#10;ファイル送信&#10;フラグ &#10;論理削除フラグ&#10;作成日時&#10;作成者（FK）&#10;更新日時&#10;更新者（FK）" style="align=left;strokeColor=none;fillColor=none;spacingLeft=4;fontSize=12;verticalAlign=top;resizable=0;rotatable=0;part=1;" vertex="1" parent="4">
                    <mxGeometry y="30" width="160" height="140" as="geometry"/>
                </mxCell>
                <mxCell id="28" value="" style="edgeStyle=entityRelationEdgeStyle;fontSize=12;html=1;endArrow=ERzeroToMany;startArrow=ERmandOne;" edge="1" parent="1" source="5" target="12">
                    <mxGeometry width="100" height="100" relative="1" as="geometry">
                        <mxPoint x="290" y="690" as="sourcePoint"/>
                        <mxPoint x="390" y="590" as="targetPoint"/>
                    </mxGeometry>
                </mxCell>
                <mxCell id="29" value="" style="edgeStyle=entityRelationEdgeStyle;fontSize=12;html=1;endArrow=ERzeroToMany;startArrow=ERmandOne;" edge="1" parent="1" source="3" target="19">
                    <mxGeometry width="100" height="100" relative="1" as="geometry">
                        <mxPoint x="472" y="405" as="sourcePoint"/>
                        <mxPoint x="380" y="220" as="targetPoint"/>
                    </mxGeometry>
                </mxCell>
                <mxCell id="31" value="" style="edgeStyle=entityRelationEdgeStyle;fontSize=12;html=1;endArrow=ERoneToMany;startArrow=ERmandOne;" edge="1" parent="1" source="7" target="19">
                    <mxGeometry width="100" height="100" relative="1" as="geometry">
                        <mxPoint x="740" y="420" as="sourcePoint"/>
                        <mxPoint x="840" y="320" as="targetPoint"/>
                    </mxGeometry>
                </mxCell>
                <mxCell id="21" value="ユーザーID (FK)&#10;チャットID (FK)" style="swimlane;childLayout=stackLayout;horizontal=1;startSize=120;horizontalStack=0;rounded=1;fontSize=14;fontStyle=0;strokeWidth=2;resizeParent=0;resizeLast=1;shadow=0;dashed=0;align=center;arcSize=0;" vertex="1" parent="1">
                    <mxGeometry x="52" y="220" width="156" height="60" as="geometry"/>
                </mxCell>
                <mxCell id="11" value="投稿ID" style="swimlane;childLayout=stackLayout;horizontal=1;startSize=30;horizontalStack=0;rounded=1;fontSize=14;fontStyle=0;strokeWidth=2;resizeParent=0;resizeLast=1;shadow=0;dashed=0;align=center;arcSize=0;" vertex="1" parent="1">
                    <mxGeometry x="52" y="580" width="160" height="170" as="geometry"/>
                </mxCell>
                <mxCell id="12" value="チャットID（FK）&#10;投稿者ID(FK)&#10;投稿内容&#10;添付ファイル名&#10;論理削除フラグ&#10;投稿日時&#10;投稿者（FK）&#10;更新日時&#10;更新者（FK）" style="align=left;strokeColor=none;fillColor=none;spacingLeft=4;fontSize=12;verticalAlign=top;resizable=0;rotatable=0;part=1;" vertex="1" parent="11">
                    <mxGeometry y="30" width="160" height="140" as="geometry"/>
                </mxCell>
                <mxCell id="32" value="ユーザー" style="text;html=1;align=center;verticalAlign=middle;resizable=0;points=[];autosize=1;" vertex="1" parent="1">
                    <mxGeometry x="320" y="320" width="60" height="20" as="geometry"/>
                </mxCell>
                <mxCell id="33" value="投稿" style="text;html=1;align=center;verticalAlign=middle;resizable=0;points=[];autosize=1;" vertex="1" parent="1">
                    <mxGeometry x="52" y="558" width="40" height="20" as="geometry"/>
                </mxCell>
                <mxCell id="34" value="チャット" style="text;html=1;align=center;verticalAlign=middle;resizable=0;points=[];autosize=1;" vertex="1" parent="1">
                    <mxGeometry x="50" y="340" width="60" height="20" as="geometry"/>
                </mxCell>
                <mxCell id="35" value="チャットユーザー" style="text;html=1;align=center;verticalAlign=middle;resizable=0;points=[];autosize=1;" vertex="1" parent="1">
                    <mxGeometry x="50" y="200" width="110" height="20" as="geometry"/>
                </mxCell>
                <mxCell id="36" value="タスクユーザー" style="text;html=1;align=center;verticalAlign=middle;resizable=0;points=[];autosize=1;" vertex="1" parent="1">
                    <mxGeometry x="590" y="200" width="100" height="20" as="geometry"/>
                </mxCell>
                <mxCell id="37" value="タスク" style="text;html=1;align=center;verticalAlign=middle;resizable=0;points=[];autosize=1;" vertex="1" parent="1">
                    <mxGeometry x="588" y="321" width="50" height="20" as="geometry"/>
                </mxCell>
            </root>
        </mxGraphModel>
    </diagram>
</mxfile>
